<?xml version="1.0" encoding="UTF-8" standalone="no" ?>
<!DOCTYPE svg PUBLIC "-//W3C//DTD SVG 1.1//EN" "http://www.w3.org/Graphics/SVG/1.1/DTD/svg11.dtd">
<svg xmlns="http://www.w3.org/2000/svg" xmlns:xlink="http://www.w3.org/1999/xlink" version="1.1" width="1080" height="1080" viewBox="0 0 1080 1080" xml:space="preserve">
<desc>Created with Fabric.js 4.2.0</desc>
<defs>
</defs>
<rect x="0" y="0" width="100%" height="100%" fill="transparent"></rect>
<g transform="matrix(1 0 0 1 540 540)" id="0b0dc15b-d88c-4426-b3cd-5b27f2c0b466"  >
<rect style="stroke: none; stroke-width: 1; stroke-dasharray: none; stroke-linecap: butt; stroke-dashoffset: 0; stroke-linejoin: miter; stroke-miterlimit: 4; fill: rgb(255,255,255); fill-rule: nonzero; opacity: 1;" vector-effect="non-scaling-stroke"  x="-540" y="-540" rx="0" ry="0" width="1080" height="1080" />
</g>
<g transform="matrix(1 0 0 1 540 540)" id="cf93c552-5fdc-4bbd-af7c-fb377f650a47"  >
</g>
<g transform="matrix(0.42 0 0 0.42 540 273.62)"  >
<g style="" vector-effect="non-scaling-stroke"   >
		<g transform="matrix(1 0 0 1 0 141.73)"  >
<path style="stroke: none; stroke-width: 1; stroke-dasharray: none; stroke-linecap: butt; stroke-dashoffset: 0; stroke-linejoin: miter; stroke-miterlimit: 4; fill: rgb(240,240,240); fill-rule: nonzero; opacity: 1;" vector-effect="non-scaling-stroke"  transform=" translate(-599.99, -591.73)" d="M 430.17958 804.71527 Q 383.57484999999997 804.71527 337.10927 803.2660500000001 C 292.84706 801.8851900000001 247.07752999999997 800.45843 204.53651 779.9672200000001 C 174.77724 765.6342200000001 148.42078999999998 742.6381200000001 128.31727999999998 713.4633100000001 C 115.05453542976761 694.0656073717819 105.17736407435183 672.5592159796512 99.10584999999998 649.8588200000002 C 96.13572076426364 638.9382939927947 93.98038472747335 627.8123440414458 92.65760999999998 616.5726900000002 C 89.03513417472355 586.2082797730548 91.60189828157698 555.4247145762815 100.20302000000001 526.0795200000002 C 104.37998081149516 512.0373625119465 110.07129950717881 498.49096760879917 117.17664999999997 485.67913000000027 C 148.20009 429.8856800000002 204.78456 392.43304000000023 272.42177 382.9252300000002 C 272.9810871336823 382.8622572516644 273.5450721120331 382.8517949196904 274.10634 382.8939800000002 C 274.41053999999997 382.90814000000023 274.71376 382.92327000000023 275.02284 382.9120400000002 L 275.42084 382.8021800000002 C 276.44659161820397 382.4929894345731 277.4936826475455 382.2596140175106 278.55365 382.1039400000002 C 382.86811 368.61712000000017 493.1435 395.9057000000002 597.4501399999999 461.0175100000002 C 678.1000399999999 511.3685900000002 784.9838299999999 538.4818700000002 924.2099 543.9066700000002 L 926.18647 543.9965200000001 C 964.94379 545.9301100000001 1002.43354 559.8070600000001 1034.60736 584.1293300000001 C 1066.0451688339638 607.7063073516696 1089.9919353690095 639.8737420068051 1103.56049 676.7533300000001 C 1105.20209 681.2142700000002 1106.7069700000002 685.8578200000002 1108.03315 690.5541100000002 C 1110.54584 699.4369300000002 1107.63324 708.4125100000001 1100.04096 715.2445400000001 L 1100.04096 715.2533300000001 L 1099.69428 715.5629000000001 C 1098.85981 716.2836100000002 1097.98139 716.9750100000001 1097.0834399999999 717.6185700000001 L 1096.02777 718.3744300000001 C 1087.13031 724.7396600000001 1080.10297 729.7679800000001 1071.6923299999999 733.67325 C 1066.0150214646583 736.2825976400636 1060.0585298400194 738.2356584097528 1053.93842 739.49454 C 1020.01068 746.67814 985.5565799999999 753.33829 951.53315 759.29142 C 885.45741 770.86175 817.641 780.40667 749.96718 787.6596 C 643.7504415447235 799.0273262154903 537.0028953321766 804.7206392817599 430.1795799999995 804.7152700000001 Z M 273.31532 384.87005 C 273.1077038534483 384.8683467688331 272.90020748876043 384.8805809327624 272.69423 384.90667 C 205.68935 394.32562 149.64052 431.41058000000004 118.9247 486.65179 C 111.88947893703202 499.3365474737102 106.2544683497051 512.7487127425198 102.11902999999998 526.6517900000001 C 93.59586020493498 555.7356609288933 91.05302188188378 586.2447678583209 94.64393999999999 616.33831 C 95.95509286626528 627.4793655142723 98.09149678317587 638.5077167770387 101.03554000000003 649.3324500000001 C 107.04761624779532 671.81553563613 116.82903462581325 693.1162312988239 129.96375999999998 712.3285499999998 C 149.8705 741.21722 175.95741 763.9828399999999 205.40468 778.1644899999999 C 247.56386 798.4721 293.11757 799.893 337.17177 801.266 C 474.8940258899164 805.5440051868618 612.7474127256562 800.3334377183609 749.7537699999998 785.6712699999997 C 817.38365 778.4222699999999 885.15611 768.88416 951.18834 757.3206899999999 C 985.18883 751.3724399999999 1019.619 744.7171699999999 1053.52379 737.5374799999998 C 1059.496515021531 736.3102812851232 1065.3095634437072 734.4050352783313 1070.84996 731.8587699999998 C 1079.09117 728.0325999999998 1086.05162 723.0521299999998 1094.86363 716.7474399999999 L 1095.9193 715.9925599999999 C 1096.6913 715.4388499999999 1097.44908 714.84705 1098.17418 714.2318199999999 L 1098.38218 714.0423699999999 C 1105.62388 707.7034999999998 1108.4397900000001 699.3402199999999 1106.10825 691.0980299999999 L 1106.10825 691.0970299999999 C 1104.79625 686.4505499999999 1103.30747 681.8567999999999 1101.68247 677.4417599999999 C 1074.40464 602.69567 1003.8397 549.8724199999999 926.0906699999999 545.9944899999999 L 924.1248499999999 545.90465 C 860.5281699999999 543.42613 804.87632 536.5609 753.9964299999999 524.91442 C 693.25771 511.01214 640.23183 490.08441 596.391 462.7138 C 492.48181999999997 397.8515 382.66736 370.66449 278.80848 384.08734 C 277.8427575733544 384.23169163184735 276.8888815134604 384.4464574617586 275.95448 384.72992 L 275.2372 384.90423 C 274.82410999999996 384.92623 274.41884 384.9096 274.01453999999995 384.89153999999996 C 273.7748 384.88079 273.54237 384.87005 273.31532 384.87005 Z" stroke-linecap="round" />
</g>
		<g transform="matrix(1 0 0 1 -3.64 253.08)"  >
<path style="stroke: none; stroke-width: 1; stroke-dasharray: none; stroke-linecap: butt; stroke-dashoffset: 0; stroke-linejoin: miter; stroke-miterlimit: 4; fill: rgb(230,230,230); fill-rule: nonzero; opacity: 1;" vector-effect="non-scaling-stroke"  transform=" translate(-596.35, -703.08)" d="M 1099.04079 714.79565 L 1099.04079 714.80565 C 1098.23085 715.5056500000001 1097.38079 716.17565 1096.50087 716.80565 C 1081.8208200000001 727.31565 1071.79079 734.68565 1053.73087 738.51565 Q 1002.7308700000001 749.31565 951.3608100000001 758.30565 Q 851.1458100000001 775.85565 749.8608100000001 786.66565 C 612.8105796003183 801.3597033521593 474.9092219364553 806.5721020233082 337.14080999999976 802.2656500000008 C 291.2608700000001 800.8356500000001 247.0108700000001 799.31565 204.9708100000001 779.06565 C 174.24081000000012 764.26565 148.42081000000013 740.87565 129.1408100000001 712.89565 C 109.5908100000001 684.52565 97.7008700000001 650.9556500000001 93.65081000000009 616.4556500000001 C 103.17025536733338 612.3009470360853 113.28374520285112 609.668807539354 123.62081000000006 608.6556500000002 C 159.5008100000001 605.2356500000002 194.8108100000001 618.3756500000002 227.44081000000008 633.6656500000001 C 260.0808100000001 648.9456500000001 292.1308100000001 666.8056500000001 327.4708100000001 673.8556500000002 C 379.55081000000007 684.2456500000002 433.31081000000006 670.1156500000002 483.2408100000001 652.0256500000002 C 533.1708100000001 633.9356500000001 582.3208100000002 611.5956500000002 634.9808100000001 604.7656500000002 C 705.6108100000001 595.5956500000002 776.4808100000001 615.0056500000002 845.0608100000002 634.2256500000002 Q 954.6358100000002 664.9306500000002 1064.2208100000003 695.6456500000002 C 1074.6607500000002 698.5656500000001 1085.4908100000002 701.6956500000001 1093.6307200000003 708.8556500000002 C 1095.649068479361 710.6285981615828 1097.4636165102604 712.6208857481652 1099.04079 714.79565 Z" stroke-linecap="round" />
</g>
		<g transform="matrix(1 0 0 1 0 167.84)"  >
<path style="stroke: none; stroke-width: 1; stroke-dasharray: none; stroke-linecap: butt; stroke-dashoffset: 0; stroke-linejoin: miter; stroke-miterlimit: 4; fill: rgb(242,242,242); fill-rule: nonzero; opacity: 1;" vector-effect="non-scaling-stroke"  transform=" translate(-599.99, -617.84)" d="M 1099.04079 714.79565 L 1099.04079 714.80565 C 1098.23085 715.5056500000001 1097.38079 716.17565 1096.50087 716.80565 C 1087.3008 723.38565 1079.9308 728.7456500000001 1071.27077 732.76565 Q 1026.6159200000002 737.16065 981.84077 740.3757 Q 866.5958400000001 748.6406300000001 750.90077 749.1657 C 594.4307699999999 749.9657 429.92076999999995 754.8657000000001 292.92076999999995 678.8657000000001 C 247.33527999999995 653.5774 181.30076999999994 705.4357000000001 136.14076999999995 677.7057000000001 C 123.12350648826462 669.6860626214261 111.02750969985729 660.2594190028859 100.0708299999999 649.5957000000001 C 97.11168363030124 638.7235883668085 94.96574090039815 627.6463316368786 93.65077999999991 616.4557000000001 C 90.02558449841675 586.2270198535666 92.58060939338804 555.5769276048359 101.16077999999987 526.3657000000002 C 105.31193886914832 512.3912885441263 110.97545190835753 498.9115239392589 118.05077999999996 486.16570000000013 C 139.03077999999994 493.69570000000004 159.15077999999994 504.5357000000001 178.30077999999995 516.0157 C 213.42077999999995 537.0457 247.57077999999996 560.9257 286.6807799999999 572.9657000000001 C 344.3307799999999 590.7157000000001 406.7007799999999 580.9557000000001 465.2007799999999 566.2757 C 523.7007799999999 551.5957 581.8107799999999 532.0357 642.1007799999999 530.3857 C 722.9607799999999 528.1757 800.7907799999998 558.2857 876.0607799999999 587.9157 Q 989.3257799999999 632.5107 1102.62071 677.0957000000001 Q 1105.11077 683.8607000000001 1107.07079 690.8257000000001 C 1109.74086 700.26562 1105.87074 708.81567 1099.04079 714.79565 Z" stroke-linecap="round" />
</g>
		<g transform="matrix(1 0 0 1 -313.61 -124.13)"  >
<path style="stroke: none; stroke-width: 1; stroke-dasharray: none; stroke-linecap: butt; stroke-dashoffset: 0; stroke-linejoin: miter; stroke-miterlimit: 4; fill: rgb(230,230,230); fill-rule: nonzero; opacity: 1;" vector-effect="non-scaling-stroke"  transform=" translate(-286.38, -325.87)" d="M 362.80838 330.89244 C 351.43577 323.22584 352.54828 306.45105 364.57499 299.85778000000005 Q 364.94205 299.65654000000006 365.29487 299.44162000000006 Q 366.19894 295.11169000000007 367.10309 290.78184000000005 C 370.65094 294.46684000000005 377.62751000000003 293.7713600000001 380.378 289.4584100000001 C 370.787323009008 269.000804034707 358.1758415193647 250.10113964545656 342.96628999999996 233.39293000000004 C 336.10477229259584 225.8182444125722 335.98008270087183 214.31263961870172 342.67582999999996 206.59103000000007 Q 342.76306999999997 206.48936000000006 342.84876999999994 206.38615000000007 C 351.43745241943543 203.48548880832774 359.570209547877 199.37869432101965 367.003 194.18900000000002 C 341.5131 153.23525 292.90745 120.70009999999999 281.35437 73.86561999999999 C 246.59766000000002 111.19024999999999 242.69600000000003 124.33567 207.93921 161.6603 C 207.93921 161.6603 175.02859 191.35748 167.92507 207.31723 C 169.67046 209.15062 185.2965 213.55023 185.89723 217.155 C 197.81404 218.11032 218.45932 205.04855 218.45932 205.04855 C 218.45932 205.04855 173.39754 253.08942000000002 159.71625 282.68036 C 158.48425 285.34506 157.31414 288.38774 158.34625 291.13606 C 159.17025 293.33023 162.12633 294.59533999999996 164.03016 293.72355999999996 C 161.75588160876055 295.91708033668533 159.9298072601691 298.53188354740394 158.65359 301.42240999999996 C 166.82646053475116 306.64124598281825 177.51353331861267 305.5648962143315 184.48159 298.82113999999996 Q 181.62319000000002 304.16146999999995 178.76478 309.50166999999993 L 178.76817 309.51003999999995 C 184.00623433650512 311.2217230966453 187.94896190783018 315.57524589393233 189.13480723207084 320.95678358159046 C 190.3206525563115 326.3383212692486 188.57286920804518 331.94577299135085 184.53934999999998 335.70048999999995 C 172.71412999999998 346.69848999999994 161.90895999999998 358.25870999999995 157.94969999999998 365.87165999999996 C 154.22503999999998 373.03353999999996 192.46889999999996 381.66666 201.07088 381.31265999999994 C 209.67286000000001 380.9586599999999 217.71329 377.17893999999995 225.48243 373.46941999999996 C 225.10381559567153 377.01193034550795 225.78142720391784 380.5872877685678 227.43 383.7456 C 236.02528606944574 385.83158668487647 245.09856077832035 384.36474473464614 252.59871 379.67667 C 252.25589000000002 386.76138 261.19271000000003 390.67355 267.39571 388.66722 C 264.2989 437.65749999999997 266.56416 506.45059 269.53934 577.8656599999999 L 276.92078999999995 577.8656599999999 L 276.92078999999995 391.49158 C 278.8849551437854 392.4869625377899 280.98595250992406 393.1853751969337 283.15513999999996 393.564 C 298.25713999999994 396.24477 316.48143999999996 397.87466 326.30837999999994 386.09813 C 337.61871999999994 397.50276 358.34527999999995 397.28628000000003 369.59021999999993 385.92149 C 368.4835099999999 387.88219 370.17738999999995 391.18174 372.68308999999994 391.70161 C 375.6360399999999 392.31427 378.5088799999999 390.55961 381.01598999999993 388.88354000000004 Q 398.0403999999999 377.50181000000003 415.06485999999995 366.12004 C 401.05909 356.67837 381.16315 343.266 362.80838 330.89244 Z" stroke-linecap="round" />
</g>
		<g transform="matrix(1 0 0 1 103.52 -177.55)"  >
<circle style="stroke: none; stroke-width: 1; stroke-dasharray: none; stroke-linecap: butt; stroke-dashoffset: 0; stroke-linejoin: miter; stroke-miterlimit: 4; fill: rgb(242,242,242); fill-rule: nonzero; opacity: 1;" vector-effect="non-scaling-stroke"  cx="0" cy="0" r="35.64001" />
</g>
		<g transform="matrix(1 0 0 1 139.87 -188.75)"  >
<path style="stroke: none; stroke-width: 1; stroke-dasharray: none; stroke-linecap: butt; stroke-dashoffset: 0; stroke-linejoin: miter; stroke-miterlimit: 4; fill: rgb(230,230,230); fill-rule: nonzero; opacity: 1;" vector-effect="non-scaling-stroke"  transform=" translate(-739.86, -261.25)" d="M 783.27836 255.57938 C 781.21702 248.6746 775.39343 244.16698 768.35643 243.17810999999998 C 768.27904 243.16718999999998 768.20555 243.18160999999998 768.1284300000001 243.17663999999996 C 768.028793603776 243.14618719594097 767.9271397216334 243.12277616085694 767.8242200000001 243.10657999999995 C 757.8559546551703 241.89171959216768 747.769996755161 244.08715952870145 739.2085800000001 249.33542999999997 C 730.9590200000001 254.48548999999994 721.3480500000001 256.8147799999999 711.6302700000001 257.19313999999997 Q 711.5443500000001 257.19649 711.4583300000002 257.20077999999995 C 704.0584873461513 257.69387064292613 697.7605975527546 262.7701273536129 695.7073300000002 269.89647999999994 C 695.4883582238126 270.77016875846044 695.8606430835699 271.6850303471803 696.6274400000002 272.15757999999994 C 697.7039471830077 273.069863312493 698.9792504825919 273.7171971077876 700.3510800000003 274.0476699999999 Q 704.7910000000003 274.9882799999999 709.2625300000002 275.7709899999999 Q 717.9879000000002 277.29792999999995 726.8043500000002 278.2399899999999 C 738.7355057484627 279.51857792592256 750.7406687825076 279.9723556772563 762.7343000000001 279.5980899999999 C 766.7289100000002 279.4735999999999 770.5811100000002 279.3410899999999 774.2410400000002 277.5780899999999 C 776.9037165582907 276.2629484355316 779.1785251068277 274.2778342227252 780.8420400000002 271.8177199999999 C 784.0146578640525 267.03122498843976 784.906623611249 261.0861754582748 783.27836 255.57938 Z" stroke-linecap="round" />
</g>
		<g transform="matrix(1 0 0 1 65.8 -141.23)"  >
<path style="stroke: none; stroke-width: 1; stroke-dasharray: none; stroke-linecap: butt; stroke-dashoffset: 0; stroke-linejoin: miter; stroke-miterlimit: 4; fill: rgb(230,230,230); fill-rule: nonzero; opacity: 1;" vector-effect="non-scaling-stroke"  transform=" translate(-665.79, -308.77)" d="M 709.20315 303.09932 C 707.14164 296.19462999999996 701.3180500000001 291.68701 694.2812100000001 290.69813999999997 C 694.2036600000001 290.68721999999997 694.1302100000001 290.70163999999994 694.0531000000001 290.69667 C 693.9535341002976 290.666219939581 693.8519502367931 290.6428088689326 693.7491000000001 290.62660999999997 C 683.780728568129 289.41172986458133 673.694662129793 291.6072064240037 665.1331700000001 296.85555999999997 C 656.8838900000001 302.00548999999995 647.27323 304.33513 637.55574 304.71313999999995 Q 637.46944 304.71649999999994 637.38304 304.72081 C 629.9831973461512 305.21390064292615 623.6853075527545 310.2901573536129 621.6320400000001 317.41650999999996 C 621.413246131834 318.2902244305558 621.7855651302912 319.20501083825314 622.55231 319.67760999999996 C 623.6287802721267 320.58985719408327 624.9040228882104 321.2371880018851 626.27579 321.56769999999995 Q 630.7157100000001 322.5081799999999 635.18724 323.29101999999995 Q 643.91261 324.81783999999993 652.72924 325.76001999999994 C 664.6604151453056 327.03857108902525 676.6655922611134 327.49234874115376 688.65924 327.11811999999986 C 692.65368 326.99362999999994 696.5058799999999 326.86099999999993 700.1659699999999 325.0979999999999 C 702.8285807401824 323.7827963564834 705.1033686594448 321.797727714846 706.7669699999999 319.3377099999999 C 709.9394446212535 314.5511375824896 710.8313517997503 308.60611849185153 709.20315 303.09932 Z" stroke-linecap="round" />
</g>
		<g transform="matrix(1 0 0 1 334.39 -3.13)"  >
<path style="stroke: none; stroke-width: 1; stroke-dasharray: none; stroke-linecap: butt; stroke-dashoffset: 0; stroke-linejoin: miter; stroke-miterlimit: 4; fill: rgb(230,230,230); fill-rule: nonzero; opacity: 1;" vector-effect="non-scaling-stroke"  transform=" translate(-934.38, -446.87)" d="M 1010.80838 451.89244 C 999.43577 444.22584 1000.5482800000001 427.45105 1012.5749900000001 420.85778000000005 Q 1012.9420600000001 420.65654000000006 1013.2948700000001 420.44162000000006 Q 1014.19893 416.11169000000007 1015.1030900000001 411.78184000000005 C 1018.6509400000001 415.46684000000005 1025.62751 414.7713600000001 1028.3780000000002 410.4584100000001 C 1018.7873230090082 390.000804034707 1006.1758415193649 371.10113964545644 990.9662900000001 354.39293 C 984.1047722925961 346.81824441257226 983.980082700872 335.3126396187018 990.6758300000001 327.5910300000001 Q 990.7630700000001 327.4893600000001 990.8487700000002 327.3861500000001 C 999.4374524194355 324.4854888083278 1007.5702095478772 320.3786943210197 1015.003 315.189 C 989.5131 274.23525 940.90745 241.70010000000002 929.35437 194.86562000000004 C 894.59766 232.19025000000005 890.696 245.33567000000005 855.93921 282.6603 C 855.93921 282.6603 823.02859 312.35748 815.92507 328.31723 C 817.67046 330.15062 833.2965 334.55023 833.89723 338.155 C 845.8140400000001 339.11031999999994 866.45932 326.04855 866.45932 326.04855 C 866.45932 326.04855 821.39754 374.08941999999996 807.7162500000001 403.68035999999995 C 806.4842500000001 406.34505999999993 805.3141400000001 409.38773999999995 806.34625 412.13605999999993 C 807.17025 414.3302299999999 810.12633 415.5953399999999 812.03016 414.7235599999999 C 809.7558816087605 416.9170803366853 807.9298072601691 419.5318835474039 806.65359 422.4224099999999 C 814.8264715868883 427.6412726818817 825.5135752091378 426.56492189119285 832.48164 419.8211399999999 Q 829.62324 425.1614699999999 826.76483 430.5016699999999 L 826.7682199999999 430.5100399999999 C 832.006284336505 432.22172309664523 835.9490119078301 436.57524589393233 837.1348572320708 441.9567835815904 C 838.3207025563114 447.3383212692485 836.572919208045 452.94577299135085 832.5393999999999 456.7004899999999 C 820.7141799999999 467.6984899999999 809.9090099999999 479.2587099999999 805.9497499999999 486.8716599999999 C 802.2250899999999 494.0335399999999 840.4689499999998 502.6666599999999 849.0709299999999 502.3126599999999 C 857.6729099999999 501.95865999999984 865.7133399999999 498.1789399999999 873.4824799999999 494.4694199999999 C 873.103850262917 498.01192537456416 873.7814444219653 501.5872825186896 875.43 504.7456 C 884.0252860694457 506.83158668487647 893.0985607783203 505.36474473464614 900.59871 500.67667 C 900.25589 507.76138 909.19271 511.67355 915.39571 509.66722 C 912.2989 558.6575 914.56416 627.45059 917.53934 698.8656599999999 L 924.92079 698.8656599999999 L 924.92079 512.49158 C 926.8849551437854 513.4869625377899 928.985952509924 514.1853751969337 931.15514 514.564 C 946.2571399999999 517.24477 964.48144 518.87466 974.3083799999999 507.09812999999997 C 985.6187199999999 518.50276 1006.34528 518.2862799999999 1017.5902199999999 506.92148999999995 C 1016.4835099999999 508.8821899999999 1018.17739 512.18174 1020.6830899999999 512.70161 C 1023.6360399999999 513.31427 1026.5088799999999 511.55965999999995 1029.0159899999999 509.88354 Q 1046.0404099999998 498.50181 1063.06486 487.12003999999996 C 1049.05909 477.67837 1029.16315 464.266 1010.80838 451.89244 Z" stroke-linecap="round" />
</g>
		<g transform="matrix(1 0 0 1 -403.99 139.68)"  >
<path style="stroke: none; stroke-width: 1; stroke-dasharray: none; stroke-linecap: butt; stroke-dashoffset: 0; stroke-linejoin: miter; stroke-miterlimit: 4; fill: rgb(230,230,230); fill-rule: nonzero; opacity: 1;" vector-effect="non-scaling-stroke"  transform=" translate(-196, -589.68)" d="M 154.05484 641.88332 C 155.57084976790463 641.9530004362545 156.96883752934954 641.0679211253652 157.55429178539495 639.6677838843573 C 158.13974604144036 638.2676466433494 157.78788060311592 636.6508826280934 156.67350000000002 635.6206900000001 C 156.58239000000003 635.2585700000001 156.51703 634.9985200000001 156.42592000000002 634.6364000000001 Q 156.47482000000002 634.51817 156.52429 634.4001200000001 C 158.04873737000446 630.7993678477975 161.58552719541464 628.4654792178386 165.49566078194138 628.4800112865313 C 169.40579436846812 628.494543355224 172.92513886866513 630.854656211659 174.42278000000002 634.4666400000001 C 177.35017000000002 641.5171500000001 181.07724000000002 648.5797100000001 181.99494 656.03443 C 182.39911986105793 659.3295934472417 182.22862229767688 662.6698955246859 181.49103000000002 665.90678 C 188.36667239878017 650.9084467858544 191.9370186301787 634.6070599645738 191.96000000000004 618.10785 C 191.9614564778143 613.9675707644508 191.73143085632995 609.8304481208602 191.27100000000002 605.7158499999999 Q 190.70020000000002 600.65617 189.68723000000003 595.6685399999999 C 186.0020367601655 577.6269861567455 178.08977549340784 560.716910425107 166.60023000000004 546.3270299999999 C 161.03930996742076 543.2928325205193 156.54211139779048 538.6269362603238 153.71466000000004 532.9581 C 152.69035063121 530.9203499863311 151.96640433540736 528.7450586351057 151.56534000000005 526.4998899999999 C 152.19262000000006 526.5821699999999 152.83022000000005 526.6335799999999 153.45751000000004 526.67468 C 153.65293000000005 526.68491 153.85859000000005 526.6952299999999 154.05401000000003 526.7055399999999 L 154.12771000000004 526.7088399999999 C 155.53601301757868 526.7720370610872 156.8502896496624 526.0028439850742 157.4848720793222 524.7440285109802 C 158.11945450898202 523.4852130368863 157.95618120491443 521.9711711345578 157.06781000000004 520.8765899999999 Q 156.66153000000003 520.3765899999999 156.25476000000003 519.8771099999999 C 155.84336000000005 519.3628899999999 155.42176000000003 518.8589799999999 155.01042000000004 518.3448399999999 C 154.9629404463371 518.2959941826697 154.918300527135 518.2444662938855 154.87672000000003 518.1905099999999 C 154.40360000000004 517.6043299999999 153.93064000000004 517.0284499999999 153.45751000000004 516.4422699999999 C 154.32101939032592 515.1020406857706 155.48243057433424 513.9793800545165 156.85118000000006 513.1618299999999 C 161.59201000000004 510.3852099999999 168.13250000000005 512.3082499999999 171.55703000000005 516.5965899999999 C 174.99180000000004 520.8848499999999 175.63963000000007 526.9009699999999 174.44679000000005 532.2587699999999 C 173.273691192868 536.8178019798892 171.33317818504693 541.1439102414207 168.70838000000006 545.0517699999999 C 168.96553000000006 545.3808899999999 169.23292000000006 545.6996899999999 169.48999000000006 546.0287699999999 C 174.18971469590383 552.0720093229753 178.2858655699747 558.5612948435315 181.71971000000008 565.4035799999999 C 180.8846467964335 557.7382270367928 181.88130706479708 549.9841347482159 184.62771000000004 542.7791199999999 C 187.41117000000006 536.0643299999999 192.62835000000007 530.4091199999999 197.22271000000006 524.60412 C 202.74127000000007 517.6315199999999 214.05759000000006 520.67453 215.02984000000006 529.51339 Q 215.04396000000006 529.64176 215.05740000000006 529.77005 Q 214.03378000000006 530.34754 213.05340000000007 530.9959 C 211.3728785385964 532.1187134556549 210.55393203537466 534.1579727570041 210.99110183002657 536.1312302184323 C 211.4282716246785 538.1044876798604 213.03189529724816 539.6070331833488 215.02940000000007 539.91499 L 215.12934000000007 539.93042 C 214.88624337550314 542.389894899198 214.45652860387838 544.8273310345468 213.84391000000008 547.22166 C 210.25527875139906 560.7342899722003 201.19508199313572 572.1387377271576 188.844 578.69009 C 188.44292 578.89575 188.05208 579.1014100000001 187.65099999999998 579.29683 C 189.4914295251425 584.4824033350806 190.96226951294526 589.7918172944317 192.05247999999997 595.18522 C 193.02795730216624 599.9411183411087 193.7079853663277 604.7528601012734 194.08865999999998 609.59282 C 194.55497106796963 615.6901972265373 194.5274547275106 621.815298495016 194.00637999999998 627.90824 L 194.03724999999997 627.69224 C 195.3536759542248 620.9170317297453 198.96792987633853 614.8037089602476 204.26965999999996 610.38465 C 212.14402999999996 603.91612 223.26905999999997 601.53415 231.76410999999996 596.33471 C 233.60747854455133 595.1512013121995 235.97023923701224 595.1454469003435 237.81935065856828 596.3199626966662 C 239.66846208012433 597.494478492989 240.66756356641 599.6356154393789 240.37982999999997 601.80723 Q 240.36273999999997 601.92074 240.34507999999997 602.03423 C 239.07872189457458 602.5499914375849 237.84572395323167 603.1441421264436 236.65324999999996 603.81323 Q 235.62961999999996 604.39084 234.64924999999997 605.03908 C 232.96871752847056 606.1619010339058 232.14976419892636 608.2011727159497 232.5869336138991 610.1744439503872 C 233.02410302887185 612.1477151848246 234.62773313744262 613.6502743430755 236.62524999999997 613.95824 L 236.72524999999996 613.9735900000001 C 236.79724999999996 613.98391 236.85894999999996 613.99422 236.93082999999996 614.00459 C 234.76707598704232 619.1709672675286 231.73017826598726 623.9263476104358 227.95314999999997 628.06245 C 218.52295432289156 638.1813431740242 205.33902070699673 643.9660582459866 191.50742999999997 644.0537400000001 L 191.49711999999997 644.0537400000001 C 189.6393742473287 652.1265356214918 186.9476931674786 659.9844090499624 183.46544999999998 667.5007400000001 L 154.77381 667.5007400000001 C 154.6709 667.18194 154.57838999999998 666.85283 154.48581 666.53403 C 157.14157968047323 666.7009836158513 159.8078004677708 666.5421350700509 162.42496 666.0610300000001 C 160.29619 663.4488900000001 158.16749 660.8162000000001 156.03871 658.20415 C 155.99123765538428 658.1553284790502 155.94660119467346 658.1038274388479 155.90502 658.0499 C 154.82524 656.71305 153.73514 655.38643 152.65536 654.04958 L 152.65478 654.04793 C 152.5972280408423 649.9499845145176 153.06747970453236 645.8616794137366 154.05393999999998 641.8838199999999 Z" stroke-linecap="round" />
</g>
		<g transform="matrix(1 0 0 1 451.01 167.68)"  >
<path style="stroke: none; stroke-width: 1; stroke-dasharray: none; stroke-linecap: butt; stroke-dashoffset: 0; stroke-linejoin: miter; stroke-miterlimit: 4; fill: rgb(230,230,230); fill-rule: nonzero; opacity: 1;" vector-effect="non-scaling-stroke"  transform=" translate(-1051, -617.68)" d="M 1009.05484 669.88332 C 1010.5708497679046 669.9530004362545 1011.9688375293495 669.0679211253652 1012.554291785395 667.6677838843573 C 1013.1397460414404 666.2676466433494 1012.7878806031159 664.6508826280934 1011.6735 663.6206900000001 C 1011.58239 663.2585700000001 1011.51703 662.9985200000001 1011.42592 662.6364000000001 Q 1011.47482 662.51817 1011.5242900000001 662.4001200000001 C 1013.0487373700045 658.7993678477975 1016.5855271954147 656.4654792178386 1020.4956607819414 656.4800112865313 C 1024.4057943684682 656.494543355224 1027.9251388686653 658.854656211659 1029.42278 662.4666400000001 C 1032.3501700000002 669.5171500000001 1036.07724 676.5797100000001 1036.99494 684.03443 C 1037.399119861058 687.3295934472417 1037.228622297677 690.6698955246859 1036.4910300000001 693.90678 C 1043.3666723987803 678.9084467858543 1046.9370186301787 662.6070599645738 1046.96 646.10785 C 1046.9614564778144 641.9675707644508 1046.73143085633 637.8304481208602 1046.271 633.7158499999999 Q 1045.7002 628.65617 1044.68723 623.6685399999999 C 1041.0020367601655 605.6269861567455 1033.0897754934078 588.716910425107 1021.60023 574.3270299999999 C 1016.0393099674208 571.2928325205193 1011.5421113977904 566.6269362603238 1008.71466 560.9581 C 1007.69035063121 558.9203499863311 1006.9664043354073 556.7450586351057 1006.56534 554.4998899999999 C 1007.19262 554.5821699999999 1007.8302199999999 554.6335799999999 1008.45751 554.67468 C 1008.65293 554.68491 1008.8585899999999 554.6952299999999 1009.05401 554.7055399999999 L 1009.12771 554.7088399999999 C 1010.5360130175786 554.7720370610872 1011.8502896496624 554.0028439850742 1012.4848720793221 552.7440285109802 C 1013.119454508982 551.4852130368863 1012.9561812049144 549.9711711345578 1012.06781 548.8765899999999 Q 1011.66153 548.3765899999999 1011.25481 547.8771099999999 C 1010.8434100000001 547.3628899999999 1010.42181 546.8589799999999 1010.01047 546.3448399999999 C 1009.9629904463371 546.2959941826697 1009.9183505271351 546.2444662938855 1009.8767700000001 546.1905099999999 C 1009.4036500000001 545.6043299999999 1008.93069 545.0284499999999 1008.4575600000001 544.4422699999999 C 1009.321069390326 543.1020406857706 1010.4824805743343 541.9793800545165 1011.8512300000001 541.1618299999999 C 1016.5920600000001 538.3852099999999 1023.1325500000002 540.3082499999999 1026.55708 544.5965899999999 C 1029.99185 548.8848499999999 1030.63968 554.9009699999999 1029.44684 560.2587699999999 C 1028.273741192868 564.8178019798892 1026.333228185047 569.1439102414207 1023.70843 573.0517699999999 C 1023.96558 573.3808899999999 1024.23297 573.6996899999999 1024.49004 574.0287699999999 C 1029.1897646959037 580.0720093229753 1033.2859155699746 586.5612948435314 1036.71976 593.4035799999998 C 1035.8846967964334 585.7382270367928 1036.881357064797 577.9841347482159 1039.6277599999999 570.7791199999999 C 1042.41122 564.0643299999999 1047.6283999999998 558.4091199999999 1052.2227599999999 552.60412 C 1057.7413199999999 545.6315199999999 1069.05764 548.67453 1070.0298899999998 557.51339 Q 1070.0440099999998 557.64176 1070.0574499999998 557.77005 Q 1069.0338399999998 558.34754 1068.0534499999999 558.9959 C 1066.3729285385962 560.1187134556549 1065.5539820353745 562.1579727570042 1065.9911518300264 564.1312302184324 C 1066.4283216246783 566.1044876798605 1068.031945297248 567.6070331833489 1070.02945 567.91499 L 1070.12939 567.93042 C 1069.886293375503 570.389894899198 1069.4565786038784 572.8273310345468 1068.8439600000002 575.22166 C 1065.255327680842 588.7342510594933 1056.1951601733192 600.1386685592463 1043.8441200000002 606.69002 C 1043.44304 606.89568 1043.0522000000003 607.10134 1042.6511200000002 607.29676 C 1046.1011014872386 617.0737004021605 1048.2651302677998 627.2577449052682 1049.0887800000003 637.5927599999999 C 1049.55509106797 643.6901372265373 1049.527574727511 649.8152384950159 1049.0065000000002 655.90818 L 1049.0373700000002 655.69218 C 1050.353795954225 648.9169717297453 1053.968049876339 642.8036489602476 1059.2697800000003 638.38459 C 1067.1441500000003 631.91606 1078.2691800000002 629.53409 1086.7642300000002 624.33465 C 1088.6075985445516 623.1511413121996 1090.9703592370124 623.1453869003435 1092.8194706585687 624.3199026966662 C 1094.6685820801247 625.494418492989 1095.6676835664102 627.6355554393789 1095.3799500000002 629.80717 Q 1095.3628600000002 629.9206800000001 1095.3452000000002 630.03417 C 1094.078841894575 630.549931437585 1092.845843953232 631.1440821264437 1091.6533700000002 631.81317 Q 1090.6297400000003 632.3907800000001 1089.6493700000003 633.03902 C 1087.9688375284709 634.1618410339058 1087.1498841989267 636.2011127159499 1087.5870536138996 638.1743839503873 C 1088.0242230288723 640.1476551848248 1089.627853137443 641.6502143430756 1091.6253700000004 641.9581800000001 L 1091.7253700000003 641.9735300000001 C 1091.7973700000002 641.9838500000001 1091.8590700000004 641.9941600000001 1091.9309500000004 642.00453 C 1089.7671959870427 647.1709072675286 1086.7302982659878 651.9262876104358 1082.9532700000004 656.06239 C 1073.523074322892 666.1812831740242 1060.3391407069971 671.9659982459866 1046.5075500000005 672.0536800000001 L 1046.4972400000006 672.0536800000001 C 1044.6394942473294 680.1264756214919 1041.9478131674791 687.9843490499625 1038.4655700000005 695.5006800000001 L 1009.7738900000005 695.5006800000001 C 1009.6709800000006 695.1818800000001 1009.5784700000005 694.8527700000001 1009.4858900000005 694.5339700000001 C 1012.1416596804737 694.7009236158514 1014.8078804677713 694.5420750700509 1017.4250400000005 694.0609700000001 C 1015.2962700000005 691.4488300000002 1013.1675700000005 688.8161400000001 1011.0387900000005 686.2040900000001 C 1010.9913176553848 686.1552684790503 1010.9466811946739 686.103767438848 1010.9051000000005 686.04984 C 1009.8253200000005 684.71299 1008.7352200000005 683.38637 1007.6554400000006 682.04952 L 1007.6548600000006 682.04787 C 1007.5973080408429 677.9499245145176 1008.067559704533 673.8616194137367 1009.0540200000006 669.8837599999999 Z" stroke-linecap="round" />
</g>
		<g transform="matrix(1 0 0 1 110.01 84.68)"  >
<path style="stroke: none; stroke-width: 1; stroke-dasharray: none; stroke-linecap: butt; stroke-dashoffset: 0; stroke-linejoin: miter; stroke-miterlimit: 4; fill: rgb(230,230,230); fill-rule: nonzero; opacity: 1;" vector-effect="non-scaling-stroke"  transform=" translate(-710, -534.68)" d="M 668.05484 586.88332 C 669.5708497679046 586.9530004362545 670.9688375293495 586.0679211253652 671.554291785395 584.6677838843573 C 672.1397460414404 583.2676466433494 671.7878806031159 581.6508826280934 670.6735 580.6206900000001 C 670.58239 580.2585700000001 670.51703 579.9985200000001 670.42592 579.6364000000001 Q 670.47482 579.51817 670.5242900000001 579.4001200000001 C 672.0487373700045 575.7993678477975 675.5855271954147 573.4654792178386 679.4956607819414 573.4800112865313 C 683.4057943684682 573.494543355224 686.9251388686653 575.854656211659 688.4227800000001 579.4666400000001 C 691.35017 586.5171500000001 695.0772400000001 593.5797100000001 695.9949400000002 601.03443 C 696.399119861058 604.3295934472417 696.228622297677 607.6698955246859 695.4910300000001 610.90678 C 702.3666723987802 595.9084467858543 705.9370186301787 579.6070599645738 705.96 563.10785 C 705.9614564778143 558.9675707644508 705.73143085633 554.8304481208602 705.2710000000001 550.7158499999999 Q 704.7002100000001 545.65617 703.6872300000001 540.6685399999999 C 700.0020367601655 522.6269861567455 692.089775493408 505.716910425107 680.6002300000001 491.32702999999987 C 675.0393099674209 488.2928325205192 670.5421113977906 483.6269362603237 667.7146600000001 477.95809999999994 C 666.6903506312101 475.9203499863311 665.9664043354074 473.74505863510575 665.5653400000001 471.49988999999994 C 666.1926200000001 471.58216999999996 666.83022 471.63357999999994 667.4575100000001 471.6746799999999 C 667.6529300000001 471.6849099999999 667.85859 471.6952299999999 668.0540100000001 471.7055399999999 L 668.1277100000001 471.70883999999995 C 669.5360130175787 471.7720370610872 670.8502896496624 471.0028439850742 671.4848720793223 469.7440285109803 C 672.119454508982 468.4852130368864 671.9561812049145 466.97117113455795 671.0678100000001 465.87658999999996 Q 670.6615300000001 465.37658999999996 670.2548100000001 464.87710999999996 C 669.8434100000002 464.36288999999994 669.4218100000002 463.85898 669.0104700000002 463.34484 C 668.9629904463372 463.2959941826698 668.9183505271351 463.2444662938855 668.8767700000002 463.19050999999996 C 668.4036500000002 462.60432999999995 667.9306900000001 462.02844999999996 667.4575600000002 461.44226999999995 C 668.3210693903261 460.10204068577065 669.4824805743344 458.9793800545165 670.8512300000002 458.16182999999995 C 675.5920600000002 455.38521 682.1325500000003 457.30824999999993 685.5570800000003 461.59658999999994 C 688.9918500000002 465.8848499999999 689.6396800000002 471.9009699999999 688.4468400000003 477.2587699999999 C 687.2737411928682 481.8178019798892 685.3332281850471 486.1439102414207 682.7084300000002 490.0517699999999 C 682.9655800000003 490.3808899999999 683.2329700000003 490.6996899999999 683.4900400000002 491.0287699999999 C 688.189764695904 497.0720093229753 692.2859155699748 503.56129484353147 695.7197600000003 510.40357999999986 C 694.8846967964337 502.7382270367927 695.8813570647973 494.98413474821587 698.6277600000003 487.77912 C 701.4112200000003 481.0643299999999 706.6284000000003 475.4091199999999 711.2227600000003 469.6041199999999 C 716.7413200000003 462.6315199999999 728.0576400000003 465.6745299999999 729.0298900000004 474.5133899999999 Q 729.0440100000004 474.6417599999999 729.0574500000004 474.7700499999999 Q 728.0338400000004 475.3475299999999 727.0534500000003 475.9958999999999 C 725.3729285385966 477.11871345565476 724.5539820353749 479.1579727570041 724.9911518300269 481.1312302184322 C 725.4283216246788 483.10448767986037 727.0319452972484 484.60703318334873 729.0294500000003 484.9149899999999 L 729.1293900000003 484.93041999999986 C 728.8862933755033 487.38989489919777 728.4565786038786 489.8273310345466 727.8439600000003 492.2216599999999 C 724.2553171251762 505.73429910008423 715.1951010188021 517.1387484003352 702.844 523.69009 C 702.4429200000001 523.89575 702.05208 524.1014100000001 701.6510000000001 524.29683 C 705.1009814872385 534.0737704021606 707.2650102677995 544.2578149052682 708.0886600000001 554.5928299999999 C 708.5549710679697 560.6902072265374 708.5274547275108 566.815308495016 708.0063800000001 572.9082500000001 L 708.0372500000002 572.6922500000001 C 709.353675954225 565.9170417297454 712.9679298763388 559.8037189602477 718.2696600000002 555.38466 C 726.1440300000002 548.9161300000001 737.2690600000002 546.53416 745.7641100000002 541.3347200000001 C 747.6074785445516 540.1512113121996 749.9702392370125 540.1454569003436 751.8193506585685 541.3199726966662 C 753.6684620801245 542.494488492989 754.6675635664102 544.6356254393789 754.3798300000002 546.8072400000001 Q 754.3627400000001 546.9207500000001 754.3450800000002 547.0342400000001 C 753.0787218945748 547.550001437585 751.8457239532319 548.1441521264437 750.6532500000002 548.8132400000001 Q 749.6296200000002 549.3908500000001 748.6492500000002 550.0390900000001 C 746.9687175284707 551.1619110339059 746.1497641989265 553.2011827159498 746.5869336138993 555.1744539503873 C 747.0241030288721 557.1477251848247 748.6277331374429 558.6502843430756 750.6252500000002 558.9582500000001 L 750.7252500000002 558.9736000000001 C 750.7972500000002 558.9839200000001 750.8589500000002 558.9942300000001 750.9308300000002 559.0046000000001 C 748.7670759870426 564.1709772675287 745.7301782659875 568.9263576104358 741.9531500000003 573.0624600000001 C 732.5229543228919 583.1813531740243 719.339020706997 588.9660682459867 705.5074300000002 589.0537500000002 L 705.4971200000002 589.0537500000002 C 703.639374247329 597.1265456214919 700.9476931674789 604.9844190499625 697.4654500000003 612.5007500000002 L 668.77381 612.5007500000002 C 668.6709000000001 612.1819500000001 668.57839 611.8528400000001 668.48581 611.5340400000001 C 671.1415796804732 611.7009936158514 673.8078004677708 611.542145070051 676.42496 611.0610400000002 C 674.29619 608.4489000000002 672.16749 605.8162100000002 670.03871 603.2041600000001 C 669.9912376553843 603.1553384790503 669.9466011946735 603.103837438848 669.90502 603.0499100000001 C 668.82524 601.71306 667.73514 600.3864400000001 666.6553600000001 599.0495900000001 L 666.6547800000001 599.04794 C 666.5972280408424 594.9499945145177 667.0674797045325 590.8616894137367 668.0539400000001 586.88383 Z" stroke-linecap="round" />
</g>
		<g transform="matrix(1 0 0 1 -115.07 328.59)"  >
<polygon style="stroke: none; stroke-width: 1; stroke-dasharray: none; stroke-linecap: butt; stroke-dashoffset: 0; stroke-linejoin: miter; stroke-miterlimit: 4; fill: rgb(255,182,182); fill-rule: nonzero; opacity: 1;" vector-effect="non-scaling-stroke"  points="0.83,26.32 12.83,22.75 4.89,-26.33 -12.83,-21.06 0.83,26.32 " />
</g>
		<g transform="matrix(1 0 0 1 -170.45 318.4)"  >
<path style="stroke: none; stroke-width: 1; stroke-dasharray: none; stroke-linecap: butt; stroke-dashoffset: 0; stroke-linejoin: miter; stroke-miterlimit: 4; fill: rgb(255,182,182); fill-rule: nonzero; opacity: 1;" vector-effect="non-scaling-stroke"  transform=" translate(-429.54, -768.4)" d="M 412.11159 785.53847 C 412.84268 786.1754099999999 413.57511 786.80394 414.3157 787.43396 C 415.78877 788.6925299999999 417.28076 789.9372599999999 418.77539 791.16559 C 419.52679 791.7805099999999 420.28639000000004 792.39672 421.0391 793.00343 L 421.03524000000004 793.02785 L 421.08312000000006 793.0438499999999 L 421.09819000000005 793.0546499999999 L 422.31138000000004 793.5662599999999 L 424.88149000000004 789.0654 L 426.06701000000004 786.99258 L 427.74229 784.0559999999999 L 430.81167000000005 778.6846899999999 L 446.97267000000005 750.40225 L 429.9484800000001 743.22649 L 428.85462000000007 745.83496 L 428.8464200000001 745.83366 L 428.3055800000001 747.12614 L 418.13988000000006 771.24875 L 416.06451000000004 776.18087 L 415.99887000000007 776.33009 L 414.75081000000006 779.2754500000001 L 413.67420000000004 781.8277800000001 L 412.47452000000004 784.68006 Z" stroke-linecap="round" />
</g>
		<g transform="matrix(1 0 0 1 -203.23 245.38)"  >
<path style="stroke: none; stroke-width: 1; stroke-dasharray: none; stroke-linecap: butt; stroke-dashoffset: 0; stroke-linejoin: miter; stroke-miterlimit: 4; fill: rgb(47,46,65); fill-rule: nonzero; opacity: 1;" vector-effect="non-scaling-stroke"  transform=" translate(-396.76, -695.38)" d="M 323.16217 663.13921 C 323.99965000000003 665.12072 324.86304 667.09792 325.73717 669.0600000000001 Q 328.17226 674.5384100000001 330.80271999999997 679.8965400000001 C 330.80141999999995 679.9047400000001 330.80962999999997 679.9060400000001 330.81652999999994 679.9155400000001 C 331.9429347364359 681.3474974059989 333.2324839650137 682.6432149602643 334.6590499999999 683.7764400000001 C 334.71685999999994 683.8360200000001 334.78541999999993 683.8804400000001 334.8445299999999 683.93185 C 335.89730140190045 684.7523533096995 337.0473305619667 685.439764431241 338.2685299999999 685.9784900000001 C 338.7094499999999 686.1659400000001 339.15852999999987 686.3547400000001 339.5995299999999 686.5422500000001 C 341.1932099999999 687.1980400000001 342.7796099999999 687.79389 344.3643499999999 688.34742 Q 348.5948499999999 689.8116600000001 352.8122199999999 690.82842 C 353.0378999999999 690.8894200000001 353.2648299999999 690.94212 353.4917999999999 690.99489 C 365.0870799999999 693.71384 376.7266099999999 694.13715 389.0064599999999 693.7543000000001 C 395.0694599999999 693.57163 401.29030999999986 693.18712 407.7322099999999 692.78718 C 409.83805999999987 692.65011 411.9508199999999 692.52255 414.0882099999999 692.3988800000001 C 414.2492099999999 692.3907800000001 414.4196399999999 692.3757200000001 414.5888099999999 692.3688800000001 C 417.6427199999999 692.1887000000002 420.7445199999999 692.0244600000001 423.9188099999999 691.8801200000001 C 427.91433999999987 691.6978200000001 432.0289199999999 691.5595500000002 436.2928099999999 691.4869400000001 L 435.0718599999999 697.2855200000001 C 434.11403575491767 701.7431975597169 432.4774727613475 706.0273893575863 430.2193699999999 709.9883600000002 C 427.6278799999999 714.8891500000002 425.5767699999999 718.7662100000002 427.1845699999999 727.7692700000001 L 427.9565699999999 732.1270800000001 C 425.79873518946897 736.049123988703 425.6038459836745 740.7557989883172 427.4300499999999 744.8428100000001 L 427.6481499999999 745.3227300000001 L 410.98575999999986 773.5342100000001 L 409.90608999999984 775.3633300000001 L 415.9973899999998 776.3281200000001 L 423.48920999999984 777.5231200000002 L 436.18820999999986 779.5344900000002 L 460.3336899999999 745.6758900000002 L 461.48877999999985 744.0604100000002 L 461.50305999999983 743.9702400000002 L 470.79843999999986 673.0264200000003 C 470.87250999999986 672.3994200000003 470.92330999999984 671.7604200000003 470.94002999999987 671.1243300000002 C 471.17163387057366 665.2957902411317 469.0518626804634 659.618573948322 465.05694999999986 655.3681400000003 C 461.23349548141204 651.2667242404474 455.92496759920044 648.8699222806493 450.31994999999984 648.7143800000002 L 443.9197599999998 648.5326400000002 L 430.8436699999998 648.1591300000002 L 421.6318099999998 647.9018300000002 L 421.4475299999998 647.8978300000002 L 394.2826299999998 647.1248300000002 L 393.6060099999998 639.0339900000002 L 393.2742699999998 638.8469900000002 L 382.7178399999998 632.9646300000003 L 346.20708999999977 612.6178400000003 L 346.1138999999998 612.5694800000003 L 343.7123099999998 611.2310400000003 L 343.3310699999998 611.6748700000004 C 343.21746999999976 611.8081900000004 343.10392999999976 611.9414700000004 342.9985999999998 612.0760500000004 C 339.7630793149126 616.194635510618 336.9566299165449 620.6328837465774 334.62292999999977 625.3217200000004 C 330.7362423423923 632.9695389385311 327.28826953474294 640.8325069811639 324.2957599999997 648.8724300000003 Q 324.09934999999973 649.3959700000004 323.94318999999973 649.8250600000003 L 323.9042899999997 649.9113300000004 C 323.8576399999997 650.0467900000003 323.8269499999997 650.1343300000003 323.8148499999997 650.1576800000004 C 322.3317 653.73819 322.2354 658.37871 323.16217 663.13921 Z" stroke-linecap="round" />
</g>
		<g transform="matrix(1 0 0 1 -191.16 235.01)"  >
<path style="stroke: none; stroke-width: 1; stroke-dasharray: none; stroke-linecap: butt; stroke-dashoffset: 0; stroke-linejoin: miter; stroke-miterlimit: 4; fill: rgb(47,46,65); fill-rule: nonzero; opacity: 1;" vector-effect="non-scaling-stroke"  transform=" translate(-408.83, -685.01)" d="M 325.64972 636.84575 C 325.85582 636.3405399999999 326.09598 635.83236 326.34172 635.34183 C 328.2628599509508 631.6361266234583 330.38684306008753 628.0391582836671 332.704 624.5673 C 335.314 620.61067 338.35735 616.4117500000001 341.90313000000003 611.9058500000001 Q 344.47635 608.6324800000001 347.39832 605.1203200000001 Q 348.86202000000003 603.3604100000001 350.42757 601.5410300000001 C 350.46985037707634 601.4843174135415 350.5149539192406 601.429765290064 350.56271 601.3775800000001 L 350.86276999999995 601.02173 L 388.40109999999993 612.22819 L 388.38262999999995 617.36819 L 391.10529999999994 624.65142 L 390.92079999999993 624.86564 C 390.92900999999995 624.86694 390.9303099999999 624.85873 390.92079999999993 624.86564 L 390.92079999999993 623.86564 L 391.92079999999993 624.86564 L 401.5987999999999 636.82412 L 401.6656999999999 636.8263 L 423.2930199999999 637.4365399999999 L 445.5810199999999 638.0673499999999 L 457.5528599999999 638.4088599999999 C 463.1582005792899 638.5629966728203 468.46724621972817 640.9600324006159 472.2898599999999 645.0626199999999 C 476.28368895187 649.3137380701716 478.40325861572296 654.9905062368706 478.1728599999999 660.8188499999999 C 478.1557699999999 661.4044299999999 478.1114699999999 662.0024599999999 478.0438599999999 662.5884499999999 L 484.9575299999999 690.5674499999999 C 489.0960165637365 707.3009035483149 490.6853411498464 724.56312254361 489.67180999999994 741.7709199999998 L 493.6782899999999 769.0037599999999 L 492.5054899999999 768.92725 L 475.0524899999999 767.80167 L 470.4431799999999 767.5086699999999 L 462.754 751.32349 C 461.87800000000004 749.47874 461.06725 747.59394 460.33677 745.6798 C 459.13037287537526 742.55142919154 458.12457772405236 739.349352750405 457.3255 736.09304 L 443.845 681.18162 Q 441.26812 681.2148 438.747 681.2145499999999 Q 427.07976 681.2574799999999 416.43044000000003 680.7640799999999 C 393.3448 679.7044 373.67073000000005 676.7899399999999 356.52416000000005 671.87232 Q 349.30028000000004 669.8079499999999 342.65787000000006 667.25574 Q 340.22062000000005 666.3276 337.86205000000007 665.32799 C 337.4910500000001 665.1768 337.12818000000004 665.0269 336.76664000000005 664.86874 C 330.16323234175775 662.0027961148023 325.46729836919866 655.9793693849685 324.29877000000005 648.87633 C 323.59381320299786 644.8193248878151 324.0625200521207 640.6453619395783 325.64972 636.84575 Z" stroke-linecap="round" />
</g>
		<g transform="matrix(1 0 0 1 -97.94 359.19)"  >
<path style="stroke: none; stroke-width: 1; stroke-dasharray: none; stroke-linecap: butt; stroke-dashoffset: 0; stroke-linejoin: miter; stroke-miterlimit: 4; fill: rgb(47,46,65); fill-rule: nonzero; opacity: 1;" vector-effect="non-scaling-stroke"  transform=" translate(-502.05, -809.19)" d="M 483.38754 796.72844 L 496.38021 792.8532 L 498.41812999999996 792.2432 L 500.26682999999997 800.14991 L 520.64914 808.1432599999999 C 522.7180327591324 808.9525230091962 524.019798967863 811.0136664842513 523.8615168181508 813.2295569661854 C 523.7032346684384 815.4454474481195 522.1217228639247 817.3006369530324 519.95881 817.8076199999999 L 497.99039 822.95886 L 492.37366 816.0268599999999 L 492.72747 824.19265 L 484.45308 826.13437 L 480.22932 797.6737899999999 Z" stroke-linecap="round" />
</g>
		<g transform="matrix(1 0 0 1 -189.54 324.51)"  >
<polygon style="stroke: none; stroke-width: 1; stroke-dasharray: none; stroke-linecap: butt; stroke-dashoffset: 0; stroke-linejoin: miter; stroke-miterlimit: 4; fill: rgb(47,46,65); fill-rule: nonzero; opacity: 1;" vector-effect="non-scaling-stroke"  points="0.54,-0.98 -0.54,0.85 0.23,0.98 0.54,-0.98 " />
</g>
		<g transform="matrix(1 0 0 1 -185.7 346.52)"  >
<path style="stroke: none; stroke-width: 1; stroke-dasharray: none; stroke-linecap: butt; stroke-dashoffset: 0; stroke-linejoin: miter; stroke-miterlimit: 4; fill: rgb(47,46,65); fill-rule: nonzero; opacity: 1;" vector-effect="non-scaling-stroke"  transform=" translate(-414.29, -796.52)" d="M 414.81639 776.56846 L 426.77539 782.9567199999999 L 428.65272 783.9571599999999 L 424.40304 790.8762599999999 L 433.26194 810.8975499999999 C 434.16264407177323 812.9283081932925 433.6373898279456 815.3088651171635 431.9657687043976 816.7720566575445 C 430.2941475808496 818.2352481979254 427.86500617850396 818.440711907273 425.97137 817.2790799999999 L 406.7366 805.482 L 407.62298 796.6042299999999 L 402.12877 802.6555999999999 L 394.88295 798.21331 L 411.90709 775.018 Z" stroke-linecap="round" />
</g>
		<g transform="matrix(1 0 0 1 -114.82 -22.15)"  >
<path style="stroke: none; stroke-width: 1; stroke-dasharray: none; stroke-linecap: butt; stroke-dashoffset: 0; stroke-linejoin: miter; stroke-miterlimit: 4; fill: rgb(255,182,182); fill-rule: nonzero; opacity: 1;" vector-effect="non-scaling-stroke"  transform=" translate(-485.17, -427.85)" d="M 501.23519 412.40164 C 501.46812461569726 415.08433065529834 500.5008359452977 417.7324110715734 498.5935997920808 419.63334188122366 C 496.6863636388639 421.53427269087393 494.0350945889054 422.4927870035864 491.35319 422.25097 L 478.05266 451.72348999999997 L 469.072 437.522 L 483.07924 411.71164 C 483.79988914291454 407.13252881688084 487.831594040595 403.81614029226097 492.4637214795147 403.992179504249 C 497.0958489184344 404.16821871623705 500.8642163297114 407.78104092080736 501.23524000000003 412.40164 Z" stroke-linecap="round" />
</g>
		<g transform="matrix(1 0 0 1 -171.04 37.84)"  >
<path style="stroke: none; stroke-width: 1; stroke-dasharray: none; stroke-linecap: butt; stroke-dashoffset: 0; stroke-linejoin: miter; stroke-miterlimit: 4; fill: rgb(240,240,245); fill-rule: nonzero; opacity: 1;" vector-effect="non-scaling-stroke"  transform=" translate(-428.95, -487.84)" d="M 467.40249 500.07859 L 406.46331 546.70578 C 396.3975492060011 554.3904210566898 382.01072619183196 552.4763593631488 374.30431 542.42726 L 374.30431 542.42726 C 370.16179543227383 537.0128860130351 368.64197598278923 530.0365698283099 370.1568984353459 523.3896996943832 C 371.67182088790264 516.7428295604567 376.0645286287798 511.11406794074594 382.14409 508.02946000000003 L 442.89676000000003 477.20719 L 470.07452 424.25939000000005 L 488.32337 429.68275000000006 Z" stroke-linecap="round" />
</g>
		<g transform="matrix(1 0 0 1 -234.03 124.84)"  >
<path style="stroke: none; stroke-width: 1; stroke-dasharray: none; stroke-linecap: butt; stroke-dashoffset: 0; stroke-linejoin: miter; stroke-miterlimit: 4; fill: rgb(240,240,245); fill-rule: nonzero; opacity: 1;" vector-effect="non-scaling-stroke"  transform=" translate(-365.96, -574.84)" d="M 337.61835 555.47064 L 336.38284000000004 600.7145399999999 C 319.38078 629.4389 317.447 643.38708 322.15317 650.824 L 392.0636 625.2864599999999 L 393.24178 622.47313 L 396.8925 602.2575899999999 L 403.51119 581.3989899999999 C 404.67658 579.2196399999999 420.49861 565.8292499999999 405.66676 540.4293299999999 L 375.82876 500.2332599999999 L 351.92079 498.865 C 347.97934000000004 508.98117 355.08922 514.5005600000001 347.98789 516.83323 C 331.92963 531.5514 334.28854 533.94654 337.61835 555.47064 Z" stroke-linecap="round" />
</g>
		<g transform="matrix(1 0 0 1 -299.21 212.86)"  >
<path style="stroke: none; stroke-width: 1; stroke-dasharray: none; stroke-linecap: butt; stroke-dashoffset: 0; stroke-linejoin: miter; stroke-miterlimit: 4; fill: rgb(255,182,182); fill-rule: nonzero; opacity: 1;" vector-effect="non-scaling-stroke"  transform=" translate(-300.78, -662.86)" d="M 290.072 682.49005 C 288.9759449499001 680.0304282363343 289.0256376381994 677.2116529939582 290.2077068908009 674.7921926873605 C 291.38977614340246 672.3727323807628 293.58279797296376 670.6011177258871 296.19668 669.95405 L 299.14556 637.75405 L 312.27082 648.24505 L 307.45827 677.2143 C 308.27207766670347 681.7777059846536 305.54411642885714 686.2285852732092 301.1084291574371 687.5745553803514 C 296.6727418860171 688.9205254874936 291.93137093008403 686.7361490513638 290.072 682.49001 Z" stroke-linecap="round" />
</g>
		<g transform="matrix(1 0 0 1 -264.35 138.14)"  >
<path style="stroke: none; stroke-width: 1; stroke-dasharray: none; stroke-linecap: butt; stroke-dashoffset: 0; stroke-linejoin: miter; stroke-miterlimit: 4; fill: rgb(240,240,245); fill-rule: nonzero; opacity: 1;" vector-effect="non-scaling-stroke"  transform=" translate(-335.64, -588.14)" d="M 293.42418 588.57166 L 335.8 524.60318 C 342.8051002045185 514.0532026023354 357.02844129964774 511.165081760983 367.59355 518.14734 L 367.59355 518.14734 C 373.27683400509017 521.9124654802049 376.99112544144333 528.0102433450691 377.72942162147257 534.787470338077 C 378.46771780150175 541.564697331085 376.1535260273942 548.3192048776089 371.41426 553.21974 L 324.05442 602.18856 L 315.65342 661.10819 L 296.63394 661.94028 Z" stroke-linecap="round" />
</g>
		<g transform="matrix(1 0 0 1 -245.93 10.34)"  >
<path style="stroke: none; stroke-width: 1; stroke-dasharray: none; stroke-linecap: butt; stroke-dashoffset: 0; stroke-linejoin: miter; stroke-miterlimit: 4; fill: rgb(47,46,65); fill-rule: nonzero; opacity: 1;" vector-effect="non-scaling-stroke"  transform=" translate(-354.06, -460.34)" d="M 383.23416 443.97229 C 391.68744 460.63372 386.16535 479.93305999999995 370.47895 490.08187999999996 C 353.5164 501.05632999999995 331.49289 498.65335999999996 324.36936000000003 477.32665999999995 C 316.43657 453.57721999999995 322.95356000000004 443.38888999999995 337.12457 431.2170699999999 C 353.73142 416.953 374.10055 425.97 383.23416 443.97229 Z" stroke-linecap="round" />
</g>
		<g transform="matrix(1 0 0 1 -237.01 14.96)"  >
<path style="stroke: none; stroke-width: 1; stroke-dasharray: none; stroke-linecap: butt; stroke-dashoffset: 0; stroke-linejoin: miter; stroke-miterlimit: 4; fill: rgb(255,182,182); fill-rule: nonzero; opacity: 1;" vector-effect="non-scaling-stroke"  transform=" translate(-362.98, -464.96)" d="M 341.62228 481.08868 C 350.5828974297167 492.8303883937953 367.3614634096336 495.09353136421555 379.1127733089942 486.14550943890407 C 390.86408320835477 477.19748751359253 393.1452161326826 460.42135789354796 384.2098 448.66046 L 383.97754 448.35546 C 374.8563428752332 436.93834408178117 358.26347568830096 434.9479305121571 346.7008051993995 443.883892913823 C 335.13813471049804 452.8198553154889 332.88049466212686 469.3784799284605 341.6289 481.0837 Z" stroke-linecap="round" />
</g>
		<g transform="matrix(1 0 0 1 -235.84 -4.78)"  >
<path style="stroke: none; stroke-width: 1; stroke-dasharray: none; stroke-linecap: butt; stroke-dashoffset: 0; stroke-linejoin: miter; stroke-miterlimit: 4; fill: rgb(47,46,65); fill-rule: nonzero; opacity: 1;" vector-effect="non-scaling-stroke"  transform=" translate(-364.15, -445.22)" d="M 391.42612 441.27461 C 387.07645359672483 445.4134088620842 381.7746364452598 448.4175612701558 375.98882000000003 450.0218 C 374.8290162721501 448.6801514324637 373.4541319621284 447.5407571672885 371.92045 446.65026 C 372.6546185993283 448.17769468428094 373.15777830940385 449.8057314530927 373.41345 451.48105 C 370.83296 456.83639 360.29368 460.68539999999996 350.22073 464.62266999999997 L 336.879 441.07675 L 354.53844000000004 431.07044 C 368.7283 421.26018 385.433 425.44723 391.42612 441.27461 Z" stroke-linecap="round" />
</g>
		<g transform="matrix(1 0 0 1 -279.62 -3.51)"  >
<path style="stroke: none; stroke-width: 1; stroke-dasharray: none; stroke-linecap: butt; stroke-dashoffset: 0; stroke-linejoin: miter; stroke-miterlimit: 4; fill: rgb(47,46,65); fill-rule: nonzero; opacity: 1;" vector-effect="non-scaling-stroke"  transform=" translate(-320.37, -446.49)" d="M 326.81509 431.24658 C 324.41209 430.13624 321.29818 430.82198 319.03909 432.38211 C 316.8891569545266 434.01650580475444 315.1509348867881 436.13072626303205 313.96308999999997 438.55611 C 311.8031373071623 442.4804022142612 310.2513218211188 446.70980014367746 309.36065999999994 451.09981 C 308.5989399999999 454.89763999999997 308.7278799999999 459.48924999999997 312.13542999999993 461.47117 C 314.9786899999999 463.12494 319.04412999999994 462.08365 321.6573399999999 459.87661999999995 C 324.27057999999994 457.66961999999995 325.74272999999994 454.56731999999994 327.0176399999999 451.53854999999993 C 328.2925499999999 448.5097799999999 329.4986399999999 445.36945999999995 331.76472999999993 442.85412999999994 L 329.41047999999995 443.95322999999996 C 330.1546196808031 441.6939512569899 330.5013494238184 439.32274450608804 330.43525999999997 436.94498999999996 C 330.3257653727342 434.5375228407739 328.94789214475287 432.36865050023147 326.81509 431.24658 Z" stroke-linecap="round" />
</g>
		<g transform="matrix(1 0 0 1 -243.77 13.57)"  >
<path style="stroke: none; stroke-width: 1; stroke-dasharray: none; stroke-linecap: butt; stroke-dashoffset: 0; stroke-linejoin: miter; stroke-miterlimit: 4; fill: rgb(47,46,65); fill-rule: nonzero; opacity: 1;" vector-effect="non-scaling-stroke"  transform=" translate(-356.22, -463.57)" d="M 357.35891 434.33256 L 338.41317 445.06772 C 327.74502753581925 451.1125910656938 323.99711944488155 464.66116158023704 330.04197999999997 475.32931 L 330.04197999999997 475.32931 C 338.8043302890985 490.78995920110486 357.88645810951283 497.05224215167726 374.1059 489.79 L 356.79358 474.50709 L 380.27887000000004 486.47309 L 385.2932 483.63184 C 360.10573 479.05211 355.247 459.29454 357.35891 434.33256 Z" stroke-linecap="round" />
</g>
</g>
</g>
</svg>